<mxfile host="Electron" modified="2024-01-30T18:39:12.176Z" agent="Mozilla/5.0 (Windows NT 10.0; Win64; x64) AppleWebKit/537.36 (KHTML, like Gecko) draw.io/22.1.16 Chrome/120.0.6099.109 Electron/28.1.0 Safari/537.36" etag="hr3QbtwcQ5mT4nHaatlF" version="22.1.16" type="device">
  <diagram name="Page-1" id="rulNx59EsDbJ6cWuCGus">
    <mxGraphModel dx="1816" dy="582" grid="1" gridSize="10" guides="1" tooltips="1" connect="1" arrows="1" fold="1" page="1" pageScale="1" pageWidth="827" pageHeight="1169" math="0" shadow="0">
      <root>
        <mxCell id="0" />
        <mxCell id="1" parent="0" />
        <mxCell id="qNfmpyMa5utbNM4rllsp-16" value="&amp;nbsp;RE&amp;nbsp; [t+3]&amp;nbsp; &amp;nbsp; &amp;nbsp;10min" style="rounded=0;whiteSpace=wrap;html=1;align=left;fontSize=13;fontStyle=1;strokeWidth=2;" vertex="1" parent="1">
          <mxGeometry x="180" y="250" width="120.5" height="30" as="geometry" />
        </mxCell>
        <mxCell id="qNfmpyMa5utbNM4rllsp-1" value="FFM" style="ellipse;whiteSpace=wrap;html=1;aspect=fixed;fontStyle=1" vertex="1" parent="1">
          <mxGeometry x="40" y="40" width="80" height="80" as="geometry" />
        </mxCell>
        <mxCell id="qNfmpyMa5utbNM4rllsp-2" value="DA" style="ellipse;whiteSpace=wrap;html=1;aspect=fixed;fontStyle=1" vertex="1" parent="1">
          <mxGeometry x="360" y="40" width="80" height="80" as="geometry" />
        </mxCell>
        <mxCell id="qNfmpyMa5utbNM4rllsp-5" value="" style="endArrow=classic;html=1;rounded=0;exitX=1;exitY=0.5;exitDx=0;exitDy=0;entryX=0;entryY=0.5;entryDx=0;entryDy=0;strokeWidth=2;" edge="1" parent="1" source="qNfmpyMa5utbNM4rllsp-1" target="qNfmpyMa5utbNM4rllsp-2">
          <mxGeometry width="50" height="50" relative="1" as="geometry">
            <mxPoint x="150" y="80" as="sourcePoint" />
            <mxPoint x="200" y="30" as="targetPoint" />
          </mxGeometry>
        </mxCell>
        <mxCell id="qNfmpyMa5utbNM4rllsp-17" value="" style="shape=trapezoid;perimeter=trapezoidPerimeter;whiteSpace=wrap;html=1;fixedSize=1;size=40;fillColor=#f5f5f5;fontColor=#333333;strokeColor=#666666;strokeWidth=2;" vertex="1" parent="1">
          <mxGeometry x="180" y="100" width="120" height="50" as="geometry" />
        </mxCell>
        <mxCell id="qNfmpyMa5utbNM4rllsp-18" value="..." style="rounded=0;whiteSpace=wrap;html=1;fontStyle=1;strokeWidth=2;" vertex="1" parent="1">
          <mxGeometry x="180" y="280" width="120.5" height="30" as="geometry" />
        </mxCell>
        <mxCell id="qNfmpyMa5utbNM4rllsp-21" value="" style="shape=flexArrow;endArrow=classic;html=1;rounded=0;" edge="1" parent="1">
          <mxGeometry width="50" height="50" relative="1" as="geometry">
            <mxPoint x="310" y="230" as="sourcePoint" />
            <mxPoint x="330" y="120" as="targetPoint" />
          </mxGeometry>
        </mxCell>
        <mxCell id="qNfmpyMa5utbNM4rllsp-22" value="f(t) = 26" style="text;html=1;strokeColor=none;fillColor=none;align=center;verticalAlign=middle;whiteSpace=wrap;rounded=0;fontSize=14;fontStyle=1" vertex="1" parent="1">
          <mxGeometry x="290" y="80" width="80" height="30" as="geometry" />
        </mxCell>
        <mxCell id="qNfmpyMa5utbNM4rllsp-25" value="&amp;nbsp;ICE [t-2]&amp;nbsp; &amp;nbsp; &amp;nbsp; &amp;nbsp; 5min" style="rounded=0;whiteSpace=wrap;html=1;align=left;fontSize=13;fontStyle=1;strokeWidth=2;" vertex="1" parent="1">
          <mxGeometry x="180" y="190" width="120" height="30" as="geometry" />
        </mxCell>
        <mxCell id="qNfmpyMa5utbNM4rllsp-26" value="..." style="rounded=0;whiteSpace=wrap;html=1;fontStyle=1;strokeWidth=2;" vertex="1" parent="1">
          <mxGeometry x="180" y="160" width="120" height="30" as="geometry" />
        </mxCell>
        <mxCell id="qNfmpyMa5utbNM4rllsp-29" value="f(t) = ?" style="text;html=1;strokeColor=none;fillColor=none;align=center;verticalAlign=middle;whiteSpace=wrap;rounded=0;fontSize=13;fontStyle=1" vertex="1" parent="1">
          <mxGeometry x="120" y="80" width="60" height="30" as="geometry" />
        </mxCell>
        <mxCell id="qNfmpyMa5utbNM4rllsp-30" value="" style="endArrow=classic;html=1;rounded=0;exitX=1;exitY=0.5;exitDx=0;exitDy=0;strokeWidth=2;entryX=0;entryY=0.5;entryDx=0;entryDy=0;" edge="1" parent="1" source="qNfmpyMa5utbNM4rllsp-2" target="qNfmpyMa5utbNM4rllsp-31">
          <mxGeometry width="50" height="50" relative="1" as="geometry">
            <mxPoint x="470" y="90" as="sourcePoint" />
            <mxPoint x="490" y="80" as="targetPoint" />
          </mxGeometry>
        </mxCell>
        <mxCell id="qNfmpyMa5utbNM4rllsp-31" value="..." style="text;html=1;strokeColor=none;fillColor=none;align=center;verticalAlign=middle;whiteSpace=wrap;rounded=0;fontStyle=1;fontSize=21;" vertex="1" parent="1">
          <mxGeometry x="530" y="65" width="60" height="30" as="geometry" />
        </mxCell>
        <mxCell id="qNfmpyMa5utbNM4rllsp-32" value="..." style="text;html=1;strokeColor=none;fillColor=none;align=center;verticalAlign=middle;whiteSpace=wrap;rounded=0;fontStyle=1;fontSize=21;" vertex="1" parent="1">
          <mxGeometry x="-100" y="65" width="60" height="30" as="geometry" />
        </mxCell>
        <mxCell id="qNfmpyMa5utbNM4rllsp-15" value="&amp;nbsp;S3&amp;nbsp; [t+1]&amp;nbsp; &amp;nbsp; &amp;nbsp; 25min" style="rounded=0;whiteSpace=wrap;html=1;align=left;fontSize=13;strokeWidth=2;fontStyle=1;strokeColor=#FF1100;" vertex="1" parent="1">
          <mxGeometry x="180" y="220" width="120.5" height="30" as="geometry" />
        </mxCell>
        <mxCell id="qNfmpyMa5utbNM4rllsp-33" value="" style="endArrow=classic;html=1;rounded=0;" edge="1" parent="1">
          <mxGeometry width="50" height="50" relative="1" as="geometry">
            <mxPoint x="160" y="160" as="sourcePoint" />
            <mxPoint x="160" y="240" as="targetPoint" />
          </mxGeometry>
        </mxCell>
        <mxCell id="qNfmpyMa5utbNM4rllsp-34" value="Suche..." style="text;html=1;strokeColor=none;fillColor=none;align=center;verticalAlign=middle;whiteSpace=wrap;rounded=0;fontStyle=1" vertex="1" parent="1">
          <mxGeometry x="100" y="180" width="60" height="30" as="geometry" />
        </mxCell>
        <mxCell id="qNfmpyMa5utbNM4rllsp-36" value="f(t + 26) = ?" style="text;html=1;strokeColor=none;fillColor=none;align=center;verticalAlign=middle;whiteSpace=wrap;rounded=0;fontSize=14;fontStyle=1" vertex="1" parent="1">
          <mxGeometry x="440" y="80" width="80" height="30" as="geometry" />
        </mxCell>
        <mxCell id="qNfmpyMa5utbNM4rllsp-37" value="" style="endArrow=classic;html=1;rounded=0;exitX=1;exitY=0.5;exitDx=0;exitDy=0;strokeWidth=2;entryX=0;entryY=0.5;entryDx=0;entryDy=0;" edge="1" parent="1">
          <mxGeometry width="50" height="50" relative="1" as="geometry">
            <mxPoint x="-50" y="79.17" as="sourcePoint" />
            <mxPoint x="40" y="79.17" as="targetPoint" />
          </mxGeometry>
        </mxCell>
        <mxCell id="qNfmpyMa5utbNM4rllsp-40" value="" style="shape=flexArrow;endArrow=classic;html=1;rounded=0;" edge="1" parent="1">
          <mxGeometry width="50" height="50" relative="1" as="geometry">
            <mxPoint x="360" y="265" as="sourcePoint" />
            <mxPoint x="310" y="264.66" as="targetPoint" />
            <Array as="points">
              <mxPoint x="340" y="264.66" />
            </Array>
          </mxGeometry>
        </mxCell>
        <mxCell id="qNfmpyMa5utbNM4rllsp-41" value="!?" style="text;html=1;align=center;verticalAlign=middle;whiteSpace=wrap;rounded=0;fontSize=59;fontStyle=1;fontColor=#B80404;" vertex="1" parent="1">
          <mxGeometry x="330" y="230" width="120" height="70" as="geometry" />
        </mxCell>
      </root>
    </mxGraphModel>
  </diagram>
</mxfile>
